Normalized EMG Linear Envelopes
nRows=243
nColumns=4

endheader
time	 med_gas_r	  soleus_r	 tib_ant_r	
3.39293	  0.077554	  0.138471	  0.047015	
3.42619	  0.079039	  0.128996	  0.047283	
3.45946	  0.080300	  0.120620	  0.047459	
3.49272	  0.081338	  0.114372	  0.047528	
3.52598	  0.082219	  0.110939	  0.047585	
3.55925	  0.083016	  0.110317	  0.047734	
3.59251	  0.083808	  0.111795	  0.047982	
3.62578	  0.084750	  0.114366	  0.048244	
3.65904	  0.086107	  0.117290	  0.048470	
3.6923	  0.088073	  0.120392	  0.048786	
3.72557	  0.090501	  0.123860	  0.049481	
3.75883	  0.092801	  0.127715	  0.050826	
3.7921	  0.094211	  0.131375	  0.052879	
3.82536	  0.094243	  0.133741	  0.055426	
3.85862	  0.092937	  0.133838	  0.058105	
3.89189	  0.090740	  0.131524	  0.060574	
3.92515	  0.088193	  0.127654	  0.062611	
3.95842	  0.085692	  0.123515	  0.064125	
3.99168	  0.083449	  0.120026	  0.065163	
4.02494	  0.081559	  0.117398	  0.065895	
4.05821	  0.080067	  0.115484	  0.066561	
4.09147	  0.079002	  0.114347	  0.067327	
4.12474	  0.078392	  0.114449	  0.068148	
4.158	  0.078242	  0.116230	  0.068747	
4.19126	  0.078495	  0.119494	  0.068765	
4.22453	  0.079023	  0.123247	  0.067975	
4.25779	  0.079674	  0.126221	  0.066432	
4.29106	  0.080347	  0.127671	  0.064489	
4.32432	  0.081009	  0.127734	  0.062747	
4.35758	  0.081658	  0.127070	  0.062023	
4.39085	  0.082302	  0.126252	  0.063392	
4.42411	  0.083027	  0.125486	  0.068243	
4.45738	  0.084110	  0.124785	  0.078288	
4.49064	  0.086095	  0.124193	  0.095401	
4.5239	  0.089718	  0.123798	  0.121306	
4.55717	  0.095719	  0.123665	  0.157192	
4.59043	  0.104657	  0.123925	  0.203402	
4.6237	  0.116820	  0.124955	  0.259158	
4.65696	  0.132213	  0.127356	  0.322178	
4.69022	  0.150470	  0.131595	  0.388212	
4.72349	  0.170640	  0.137512	  0.451096	
4.75675	  0.191061	  0.144107	  0.504020	
4.79002	  0.209612	  0.149808	  0.541976	
4.82328	  0.224435	  0.153153	  0.564019	
4.85654	  0.234720	  0.153473	  0.573642	
4.88981	  0.241022	  0.151208	  0.576706	
4.92307	  0.244858	  0.147620	  0.578165	
4.95634	  0.247851	  0.144075	  0.579673	
4.9896	  0.250970	  0.141378	  0.579459	
5.02286	  0.254320	  0.139610	  0.574331	
5.05613	  0.257498	  0.138493	  0.562448	
5.08939	  0.260118	  0.137857	  0.545146	
5.12266	  0.262073	  0.137787	  0.526763	
5.15592	  0.263426	  0.138460	  0.512595	
5.18918	  0.264193	  0.139934	  0.506235	
5.22245	  0.264292	  0.142116	  0.507917	
5.25571	  0.263669	  0.144834	  0.514772	
5.28898	  0.262468	  0.147859	  0.522487	
5.32224	  0.261101	  0.150865	  0.527076	
5.3555	  0.260177	  0.153367	  0.525865	
5.38877	  0.260233	  0.154739	  0.517764	
5.42203	  0.261372	  0.154365	  0.503311	
5.4553	  0.263034	  0.151890	  0.484591	
5.48856	  0.264115	  0.147392	  0.464691	
5.52182	  0.263408	  0.141362	  0.446672	
5.55509	  0.260141	  0.134537	  0.432476	
5.58835	  0.254284	  0.127743	  0.422324	
5.62162	  0.246504	  0.121795	  0.414903	
5.65488	  0.237870	  0.117433	  0.408399	
5.68814	  0.229501	  0.115226	  0.401915	
5.72141	  0.222339	  0.115457	  0.396342	
5.75467	  0.217086	  0.118005	  0.393807	
5.78794	  0.214241	  0.122263	  0.395883	
5.8212	  0.214149	  0.127209	  0.402025	
5.85446	  0.216909	  0.131725	  0.409631	
5.88773	  0.222151	  0.135095	  0.415678	
5.92099	  0.228886	  0.137392	  0.418426	
5.95426	  0.235728	  0.139426	  0.417751	
5.98752	  0.241408	  0.142275	  0.414177	
6.02078	  0.245219	  0.146639	  0.407820	
6.05405	  0.247095	  0.152420	  0.398346	
6.08731	  0.247409	  0.158699	  0.385812	
6.12058	  0.246757	  0.164136	  0.371440	
6.15384	  0.245805	  0.167571	  0.357485	
6.1871	  0.245070	  0.168517	  0.346293	
6.22037	  0.244679	  0.167307	  0.339307	
6.25363	  0.244372	  0.164810	  0.336726	
6.2869	  0.243847	  0.161938	  0.337762	
6.32016	  0.243233	  0.159252	  0.340956	
6.35342	  0.243227	  0.156904	  0.344249	
6.38669	  0.244747	  0.154862	  0.345201	
6.41995	  0.248329	  0.153134	  0.341830	
6.45322	  0.253727	  0.151774	  0.333806	
6.48648	  0.259961	  0.150710	  0.323042	
6.51974	  0.265730	  0.149682	  0.312991	
6.55301	  0.269907	  0.148442	  0.307053	
6.58627	  0.271869	  0.147059	  0.307098	
6.61954	  0.271562	  0.145993	  0.312807	
6.6528	  0.269366	  0.145856	  0.321811	
6.68606	  0.265901	  0.147073	  0.330418	
6.71933	  0.261893	  0.149776	  0.334873	
6.75259	  0.258134	  0.153921	  0.332933	
6.78586	  0.255423	  0.159433	  0.325008	
6.81912	  0.254403	  0.166249	  0.313954	
6.85238	  0.255356	  0.174316	  0.303405	
6.88565	  0.258042	  0.183597	  0.295752	
6.91891	  0.261726	  0.193972	  0.291289	
6.95218	  0.265472	  0.204923	  0.288964	
6.98544	  0.268668	  0.215198	  0.287652	
7.0187	  0.271422	  0.222903	  0.286611	
7.05197	  0.274369	  0.226245	  0.285003	
7.08523	  0.277929	  0.224611	  0.281500	
7.1185	  0.281710	  0.219198	  0.274787	
7.15176	  0.284724	  0.212642	  0.264565	
7.18502	  0.286288	  0.207807	  0.252030	
7.21829	  0.286756	  0.206537	  0.239302	
7.25155	  0.287331	  0.209150	  0.228320	
7.28482	  0.289150	  0.214886	  0.220059	
7.31808	  0.292494	  0.222801	  0.214452	
7.35134	  0.296735	  0.232337	  0.210733	
7.38461	  0.300846	  0.243153	  0.207828	
7.41787	  0.303892	  0.254473	  0.204768	
7.45114	  0.305192	  0.264677	  0.201131	
7.4844	  0.304305	  0.271723	  0.197215	
7.51766	  0.301108	  0.274257	  0.193709	
7.55093	  0.295950	  0.272597	  0.191174	
7.58419	  0.289716	  0.268774	  0.189838	
7.61746	  0.283673	  0.265597	  0.189866	
7.65072	  0.279124	  0.265449	  0.191587	
7.68398	  0.276928	  0.269479	  0.195301	
7.71725	  0.277136	  0.277388	  0.200777	
7.75051	  0.278937	  0.287671	  0.206986	
7.78378	  0.281028	  0.298139	  0.212350	
7.81704	  0.282155	  0.306576	  0.215367	
7.8503	  0.281535	  0.311287	  0.215243	
7.88357	  0.279022	  0.311412	  0.212236	
7.91683	  0.275052	  0.307069	  0.207581	
7.9501	  0.270443	  0.299460	  0.202950	
7.98336	  0.266061	  0.290789	  0.199683	
8.01662	  0.262451	  0.283642	  0.198244	
8.04989	  0.259662	  0.279895	  0.198197	
8.08315	  0.257412	  0.279846	  0.198586	
8.11642	  0.255499	  0.282355	  0.198378	
8.14968	  0.254112	  0.285897	  0.196804	
8.18294	  0.253786	  0.289602	  0.193629	
8.21621	  0.255020	  0.293558	  0.189311	
8.24947	  0.257865	  0.298520	  0.184882	
8.28274	  0.261850	  0.305511	  0.181531	
8.316	  0.266342	  0.315457	  0.180129	
8.34926	  0.271099	  0.328755	  0.180950	
8.38253	  0.276507	  0.344938	  0.183628	
8.41579	  0.283169	  0.362800	  0.187249	
8.44906	  0.291040	  0.380905	  0.190573	
8.48232	  0.298880	  0.397934	  0.192482	
8.51558	  0.304757	  0.412608	  0.192514	
8.54885	  0.307443	  0.423532	  0.191142	
8.58211	  0.307530	  0.429383	  0.189532	
8.61538	  0.307142	  0.429341	  0.188928	
8.64864	  0.308383	  0.423359	  0.190105	
8.6819	  0.311947	  0.412149	  0.193207	
8.71517	  0.317133	  0.397108	  0.197904	
8.74843	  0.322953	  0.380330	  0.203585	
8.7817	  0.328908	  0.364505	  0.209437	
8.81496	  0.334684	  0.352311	  0.214523	
8.84822	  0.339517	  0.345395	  0.218004	
8.88149	  0.342389	  0.343579	  0.219432	
8.91475	  0.343018	  0.345010	  0.218870	
8.94802	  0.342318	  0.347240	  0.216730	
8.98128	  0.341559	  0.348455	  0.213494	
9.01454	  0.341084	  0.348109	  0.209513	
9.04781	  0.340133	  0.346803	  0.204971	
9.08107	  0.338017	  0.345746	  0.199930	
9.11434	  0.335282	  0.346164	  0.194414	
9.1476	  0.333492	  0.348939	  0.188544	
9.18086	  0.333878	  0.354578	  0.182631	
9.21413	  0.336300	  0.363378	  0.177173	
9.24739	  0.339488	  0.375442	  0.172748	
9.28066	  0.342125	  0.390413	  0.169887	
9.31392	  0.343713	  0.407260	  0.168938	
9.34718	  0.344638	  0.424526	  0.169942	
9.38045	  0.345664	  0.440978	  0.172585	
9.41371	  0.347332	  0.456054	  0.176300	
9.44698	  0.349609	  0.469648	  0.180467	
9.48024	  0.351915	  0.481434	  0.184524	
9.5135	  0.353460	  0.490518	  0.187951	
9.54677	  0.353640	  0.495891	  0.190284	
9.58003	  0.352253	  0.497234	  0.191270	
9.6133	  0.349461	  0.495210	  0.191045	
9.64656	  0.345603	  0.490954	  0.190068	
9.67982	  0.341046	  0.485324	  0.188856	
9.71309	  0.336129	  0.478604	  0.187802	
9.74635	  0.331217	  0.470850	  0.187277	
9.77962	  0.326723	  0.462495	  0.187815	
9.81288	  0.322973	  0.454660	  0.190036	
9.84614	  0.319989	  0.448769	  0.194268	
9.87941	  0.317484	  0.445664	  0.200227	
9.91267	  0.315274	  0.444904	  0.207080	
9.94594	  0.313745	  0.444861	  0.213818	
9.9792	  0.313845	  0.443560	  0.219582	
10.0125	  0.316456	  0.439628	  0.223709	
10.0457	  0.321621	  0.432828	  0.225670	
10.079	  0.328211	  0.424072	  0.225116	
10.1123	  0.334301	  0.415089	  0.222053	
10.1455	  0.338138	  0.407868	  0.216896	
10.1788	  0.339156	  0.403925	  0.210295	
10.212	  0.338283	  0.403601	  0.202892	
10.2453	  0.337149	  0.405729	  0.195261	
10.2786	  0.336788	  0.408039	  0.188042	
10.3118	  0.336938	  0.408206	  0.182014	
10.3451	  0.336409	  0.404880	  0.177881	
10.3784	  0.333922	  0.397811	  0.175853	
10.4116	  0.328628	  0.386975	  0.175427	
10.4449	  0.320202	  0.371761	  0.175585	
10.4782	  0.308879	  0.351368	  0.175319	
10.5114	  0.295572	  0.326212	  0.174106	
10.5447	  0.281855	  0.298809	  0.172054	
10.578	  0.269623	  0.273012	  0.169689	
10.6112	  0.260506	  0.252141	  0.167582	
10.6445	  0.255295	  0.237568	  0.166058	
10.6777	  0.253629	  0.228654	  0.165146	
10.711	  0.254211	  0.223684	  0.164661	
10.7443	  0.255510	  0.220871	  0.164271	
10.7775	  0.256516	  0.218849	  0.163556	
10.8108	  0.256938	  0.216673	  0.162199	
10.8441	  0.256759	  0.213677	  0.160285	
10.8773	  0.255748	  0.209520	  0.158402	
10.9106	  0.253462	  0.204377	  0.157355	
10.9439	  0.249671	  0.199004	  0.157629	
10.9771	  0.244676	  0.194402	  0.159011	
11.0104	  0.239223	  0.191311	  0.160633	
11.0436	  0.234169	  0.189976	  0.161463	
11.0769	  0.230198	  0.190310	  0.160940	
11.1102	  0.227683	  0.192110	  0.159340	
11.1434	  0.226636	  0.194893	  0.157591	
11.1767	  0.226767	  0.197600	  0.156715	
11.21	  0.227641	  0.198732	  0.157328	
11.2432	  0.228705	  0.197159	  0.159504	
11.2765	  0.228941	  0.192988	  0.162957	
11.3098	  0.226528	  0.187662	  0.167330	
11.343	  0.219199	  0.183110	  0.172361	
11.3763	  0.205443	  0.180661	  0.177885	
11.4096	  0.185652	  0.180554	  0.183696	
11.4428	  0.162258	  0.182224	  0.189446	
